<svg width="512" height="512" viewBox="0 0 512 512" fill="none" xmlns="http://www.w3.org/2000/svg">
<g clip-path="url(#clip0)">
<path d="M474.667 512H272C251.413 512 234.667 495.253 234.667 474.667V357.333C234.667 336.747 251.413 320 272 320H474.667C495.253 320 512 336.747 512 357.333V474.667C512 495.253 495.253 512 474.667 512ZM272 352C269.056 352 266.667 354.389 266.667 357.333V474.667C266.667 477.611 269.056 480 272 480H474.667C477.611 480 480 477.611 480 474.667V357.333C480 354.389 477.611 352 474.667 352H272Z" fill="#1B3B6F"/>
<path d="M373.333 426.667C370.368 426.667 367.403 425.835 364.8 424.192L251.947 352.939C244.48 348.224 242.24 338.347 246.955 330.88C251.691 323.413 261.547 321.152 269.035 325.909L373.355 391.765L477.675 325.909C485.141 321.152 495.019 323.435 499.755 330.88C504.469 338.368 502.229 348.224 494.763 352.939L381.909 424.192C379.264 425.835 376.299 426.667 373.333 426.667Z" fill="#1B3B6F"/>
<path d="M176 446.72C174.635 446.72 173.269 446.549 171.883 446.187C143.189 438.571 0 391.445 0 211.84V80C0 73.3867 4.05333 67.4773 10.2187 65.088L175.552 1.08799C179.264 -0.341342 183.381 -0.341342 187.093 1.08799L352.427 65.088C358.613 67.4773 362.667 73.3867 362.667 80V211.84C362.667 230.208 361.152 247.851 358.144 264.213C356.544 272.896 348.139 278.592 339.52 277.077C330.816 275.477 325.077 267.136 326.656 258.453C329.323 243.968 330.667 228.288 330.667 211.84V90.9653L181.333 33.1733L32 90.9653V211.84C32 364.075 145.365 406.037 180.096 415.275C188.629 417.536 193.728 426.304 191.467 434.837C189.568 442.005 183.083 446.72 176 446.72V446.72Z" fill="#1B3B6F"/>
</g>
<defs>
<clipPath id="clip0">
<rect width="512" height="512" fill="white"/>
</clipPath>
</defs>
</svg>
