<svg width="525" height="384" viewBox="0 0 525 384" fill="none" xmlns="http://www.w3.org/2000/svg">
<path d="M104.603 384C162.373 384 209.206 380.261 209.206 375.648C209.206 371.035 162.373 367.296 104.603 367.296C46.8323 367.296 0 371.035 0 375.648C0 380.261 46.8323 384 104.603 384Z" fill="#E6E6E6"/>
<path d="M79.9564 85.2029C98.1604 77.063 120.834 82.2203 142.977 85.7997C143.183 81.4651 145.681 76.1896 143.064 73.1655C139.886 69.4915 140.178 65.6312 142.091 61.7486C146.982 51.8203 139.975 41.2561 132.899 32.472C131.304 30.4966 129.289 28.9445 127.016 27.9417C124.744 26.939 122.278 26.5139 119.82 26.701L106.713 27.6852C103.524 27.9247 100.48 29.1825 97.9893 31.2902C95.4985 33.398 93.6794 36.2552 92.7754 39.4796C89.6457 43.9542 87.9707 48.4165 89.0253 52.8555C84.3376 56.2233 83.55 60.2885 85.6565 64.8714C87.4427 67.7569 87.4237 70.5657 85.5752 73.2967C83.1477 76.7786 81.2884 80.6611 80.0736 84.7848L79.9564 85.2029Z" fill="#2F2E41"/>
<path d="M512.559 331.962H141.539C138.239 331.962 135.075 330.584 132.742 328.131C130.409 325.679 129.098 322.352 129.098 318.883C263.593 302.451 395.56 302.451 525 318.883C525 322.352 523.689 325.679 521.356 328.131C519.023 330.584 515.859 331.962 512.559 331.962Z" fill="#2F2E41"/>
<path d="M525 319.653L129.098 318.883L174.982 237.72L175.202 237.335V58.4607C175.201 56.2895 175.608 54.1396 176.398 52.1337C177.189 50.1277 178.347 48.3051 179.807 46.7699C181.268 45.2347 183.001 44.0169 184.909 43.1861C186.818 42.3553 188.863 41.9278 190.928 41.928H460.975C463.04 41.9278 465.085 42.3553 466.994 43.1861C468.902 44.0169 470.635 45.2347 472.096 46.7699C473.556 48.3051 474.714 50.1277 475.505 52.1337C476.295 54.1396 476.702 56.2895 476.701 58.4607V238.566L525 319.653Z" fill="#3F3D56"/>
<path d="M190.569 53.4678C189.211 53.4694 187.909 54.0373 186.949 55.0469C185.988 56.0564 185.448 57.4253 185.447 58.853V221.949C185.448 223.377 185.988 224.746 186.949 225.755C187.909 226.765 189.211 227.333 190.569 227.334H463.529C464.887 227.332 466.189 226.765 467.15 225.755C468.11 224.745 468.65 223.377 468.652 221.949V58.853C468.65 57.4253 468.11 56.0565 467.15 55.0469C466.189 54.0374 464.887 53.4694 463.529 53.4678H190.569Z" fill="white"/>
<path d="M191.713 248.875C191.293 248.876 190.883 249.003 190.529 249.241C190.176 249.479 189.895 249.818 189.718 250.219L175.58 282.53C175.426 282.882 175.359 283.268 175.385 283.654C175.41 284.041 175.527 284.414 175.726 284.74C175.925 285.066 176.198 285.334 176.521 285.519C176.844 285.705 177.206 285.803 177.574 285.803H474.893C475.267 285.803 475.635 285.702 475.962 285.51C476.289 285.319 476.563 285.043 476.76 284.708C476.957 284.373 477.069 283.991 477.086 283.598C477.102 283.205 477.023 282.814 476.856 282.462L461.488 250.151C461.307 249.767 461.027 249.444 460.68 249.218C460.333 248.993 459.933 248.874 459.525 248.875H191.713Z" fill="#2F2E41"/>
<path d="M325.952 50.7752C327.77 50.7752 329.245 49.2252 329.245 47.3132C329.245 45.4012 327.77 43.8513 325.952 43.8513C324.133 43.8513 322.658 45.4012 322.658 47.3132C322.658 49.2252 324.133 50.7752 325.952 50.7752Z" fill="white"/>
<path d="M296.728 291.957C296.245 291.958 295.776 292.125 295.393 292.434C295.01 292.743 294.734 293.175 294.608 293.665L291.061 307.513C290.974 307.855 290.962 308.213 291.028 308.561C291.093 308.908 291.234 309.235 291.439 309.517C291.644 309.798 291.907 310.026 292.209 310.183C292.512 310.339 292.844 310.421 293.181 310.421H360.626C360.976 310.421 361.321 310.333 361.632 310.164C361.943 309.996 362.211 309.751 362.414 309.451C362.617 309.152 362.749 308.805 362.799 308.441C362.848 308.077 362.815 307.706 362.7 307.358L358.141 293.51C357.991 293.057 357.711 292.664 357.339 292.385C356.967 292.107 356.522 291.957 356.066 291.957H296.728Z" fill="#2F2E41"/>
<path d="M476.701 234.643V237.72H174.982L175.209 237.336V234.643H476.701Z" fill="#2F2E41"/>
<path d="M468.286 107.705C496.577 107.705 519.511 83.5943 519.511 53.8524C519.511 24.1106 496.577 0 468.286 0C439.995 0 417.06 24.1106 417.06 53.8524C417.06 83.5943 439.995 107.705 468.286 107.705Z" fill="#21295C"/>
<path d="M489.508 77.3167H447.064C446.288 77.3159 445.544 76.9915 444.995 76.4145C444.446 75.8376 444.137 75.0554 444.137 74.2395V47.3132C444.137 46.4973 444.446 45.7151 444.995 45.1382C445.544 44.5613 446.288 44.2368 447.064 44.2359H489.508C490.284 44.2368 491.028 44.5613 491.577 45.1382C492.126 45.7151 492.434 46.4973 492.435 47.3132V74.2394C492.434 75.0553 492.126 75.8376 491.577 76.4145C491.028 76.9915 490.284 77.3159 489.508 77.3167ZM447.064 47.3132V74.2395H489.51L489.508 47.3132L447.064 47.3132Z" fill="white"/>
<path d="M481.458 47.3132H455.114V35.0041C455.114 26.0885 460.653 19.6177 468.286 19.6177C475.918 19.6177 481.458 26.0885 481.458 35.0041L481.458 47.3132ZM458.041 44.2359H478.531V35.0041C478.531 27.7567 474.318 22.695 468.286 22.695C462.254 22.695 458.041 27.7568 458.041 35.0041L458.041 44.2359Z" fill="white"/>
<path d="M468.286 63.0843C469.902 63.0843 471.213 61.7065 471.213 60.007C471.213 58.3075 469.902 56.9297 468.286 56.9297C466.669 56.9297 465.359 58.3075 465.359 60.007C465.359 61.7065 466.669 63.0843 468.286 63.0843Z" fill="white"/>
<path d="M432.526 172.014H221.573C220.537 172.012 219.544 171.579 218.812 170.809C218.079 170.04 217.667 168.996 217.666 167.907V112.895C217.667 111.806 218.079 110.762 218.812 109.993C219.544 109.223 220.537 108.79 221.573 108.788H432.526C433.561 108.79 434.554 109.223 435.287 109.993C436.019 110.762 436.431 111.806 436.432 112.895V167.907C436.431 168.996 436.019 170.04 435.287 170.809C434.554 171.579 433.561 172.012 432.526 172.014ZM221.573 110.431C220.951 110.432 220.355 110.692 219.916 111.154C219.476 111.615 219.229 112.242 219.229 112.895V167.907C219.229 168.56 219.476 169.187 219.916 169.648C220.355 170.11 220.951 170.37 221.573 170.371H432.526C433.147 170.37 433.743 170.11 434.182 169.648C434.622 169.187 434.869 168.56 434.87 167.907V112.895C434.869 112.242 434.622 111.615 434.182 111.153C433.743 110.692 433.147 110.432 432.526 110.431L221.573 110.431Z" fill="#E6E6E6"/>
<path d="M254.35 155.019C263.139 155.019 270.264 147.529 270.264 138.29C270.264 129.051 263.139 121.561 254.35 121.561C245.562 121.561 238.437 129.051 238.437 138.29C238.437 147.529 245.562 155.019 254.35 155.019Z" fill="#E6E6E6"/>
<path d="M291.102 127.137C290.754 127.137 290.408 127.209 290.086 127.348C289.764 127.488 289.471 127.694 289.224 127.953C288.977 128.211 288.782 128.519 288.648 128.858C288.515 129.196 288.446 129.559 288.446 129.926C288.446 130.292 288.515 130.655 288.648 130.994C288.782 131.332 288.977 131.64 289.224 131.899C289.471 132.158 289.764 132.363 290.086 132.503C290.408 132.643 290.754 132.714 291.102 132.714H416.134C416.837 132.714 417.512 132.42 418.009 131.897C418.507 131.374 418.786 130.665 418.786 129.926C418.786 129.186 418.507 128.477 418.009 127.954C417.512 127.431 416.837 127.137 416.134 127.137H291.102Z" fill="#E6E6E6"/>
<path d="M291.102 143.867C290.399 143.867 289.724 144.16 289.227 144.683C288.729 145.206 288.45 145.915 288.45 146.655C288.45 147.394 288.729 148.103 289.227 148.626C289.724 149.149 290.399 149.443 291.102 149.443H344.904C345.607 149.443 346.282 149.149 346.779 148.626C347.277 148.103 347.556 147.394 347.556 146.655C347.556 145.915 347.277 145.206 346.779 144.683C346.282 144.16 345.607 143.867 344.904 143.867H291.102Z" fill="#E6E6E6"/>
<path d="M174.463 144.994L135.467 166.79L134.973 148.627C147.701 146.393 159.811 142.504 171.008 136.173L175.086 125.58C175.53 124.425 176.253 123.412 177.182 122.64C178.111 121.868 179.216 121.363 180.387 121.175C181.558 120.987 182.755 121.123 183.861 121.568C184.967 122.013 185.944 122.754 186.696 123.716C187.796 125.124 188.346 126.918 188.234 128.736C188.122 130.555 187.358 132.26 186.094 133.508L174.463 144.994Z" fill="#FFB8B8"/>
<path d="M79.1792 270.833C78.8947 269.736 78.8343 268.588 79.0019 267.465C79.1696 266.342 79.5615 265.269 80.1519 264.316L88.7183 250.495C90.7444 247.226 93.8534 244.865 97.442 243.87C101.031 242.875 104.843 243.316 108.139 245.109C104.539 251.551 105.041 257.203 109.383 262.114C102.643 265.574 96.4134 270.038 90.8878 275.37C89.879 276.093 88.7206 276.552 87.5089 276.709C86.2972 276.866 85.0673 276.716 83.9218 276.272C82.7763 275.828 81.7482 275.103 80.9233 274.157C80.0983 273.211 79.5003 272.071 79.1792 270.833Z" fill="#2F2E41"/>
<path d="M176.239 252.762C174.943 255.033 173.113 256.916 170.925 258.23C168.737 259.543 166.265 260.244 163.746 260.264L106.836 260.717L104.368 245.668L129.543 237.884L108.317 220.759L131.517 192.218L173.656 233.507C176.119 235.92 177.72 239.149 178.19 242.654C178.66 246.159 177.971 249.727 176.239 252.762Z" fill="#2F2E41"/>
<path d="M97.951 355.683H84.6231C72.6567 269.451 60.4759 182.978 96.4701 150.703L138.922 157.968L133.492 195.85L109.798 224.392L97.951 355.683Z" fill="#2F2E41"/>
<path d="M109.667 375.217C108.624 375.516 107.532 375.579 106.463 375.403C105.395 375.227 104.374 374.815 103.468 374.195L88.9968 372.15C85.8872 370.02 83.641 366.752 82.694 362.979C81.747 359.206 82.1668 355.199 83.8719 351.733C90.0003 355.517 95.3763 354.99 100.048 350.425C103.349 357.432 108.788 357.004 113.982 362.907C114.669 363.968 115.106 365.186 115.256 366.46C115.405 367.733 115.263 369.026 114.841 370.231C114.418 371.435 113.729 372.516 112.829 373.383C111.929 374.25 110.845 374.879 109.667 375.217Z" fill="#2F2E41"/>
<path d="M129.543 93.1008L104.862 86.8736C108.961 78.0527 109.299 68.2376 107.33 57.8131L124.113 57.2942C124.639 70.2573 126.23 82.3681 129.543 93.1008Z" fill="#FFB8B8"/>
<path d="M136.326 173.593C118.359 186.464 105.664 174.033 95.9766 154.854C97.3227 143.119 95.143 129.074 91.1061 113.814C89.3107 107.083 89.981 99.8896 92.9846 93.653C95.9882 87.4164 101.107 82.5903 107.33 80.1274L128.556 89.4683C146.579 104.913 150.126 121.642 143.365 139.286L136.326 173.593Z" fill="#21295C"/>
<path d="M84.6232 106.074L64.8782 116.972L99.9255 138.767L104.802 151.413C105.128 152.257 105.286 153.162 105.268 154.073C105.25 154.983 105.056 155.88 104.697 156.709C104.339 157.538 103.823 158.282 103.182 158.895C102.541 159.508 101.788 159.977 100.969 160.274C100.038 160.611 99.0457 160.717 98.0691 160.584C97.0925 160.451 96.1584 160.082 95.3401 159.506C94.5218 158.93 93.8414 158.163 93.3523 157.264C92.8632 156.366 92.5785 155.36 92.5207 154.327L92.0275 145.513L47.4828 130.06C45.9819 129.539 44.6135 128.666 43.4811 127.507C42.3487 126.348 41.482 124.934 40.9466 123.37C40.1663 121.092 40.1266 118.605 40.8337 116.3C41.5408 113.995 42.9548 112.002 44.8544 110.632L80.6742 84.7979L84.6232 106.074Z" fill="#FFB8B8"/>
<path d="M104.368 108.15C96.1332 104.356 88.645 108.477 79.1933 111.783L77.7124 84.2789C87.0976 79.0202 96.0457 77.6024 104.368 81.6843L104.368 108.15Z" fill="#21295C"/>
<path d="M114.219 70.9177C122.922 70.9177 129.977 63.5008 129.977 54.3517C129.977 45.2025 122.922 37.7856 114.219 37.7856C105.516 37.7856 98.4609 45.2025 98.4609 54.3517C98.4609 63.5008 105.516 70.9177 114.219 70.9177Z" fill="#FFB8B8"/>
<path d="M133.071 52.2614C117.469 53.8679 105.58 51.1854 97.9823 43.5476V37.3966H131.746L133.071 52.2614Z" fill="#2F2E41"/>
</svg>
