<svg width="499" height="300" viewBox="0 0 499 300" fill="none" xmlns="http://www.w3.org/2000/svg">
<g clip-path="url(#clip0)">
<path d="M34.4803 281.5L63.8966 239.234L34.4654 286.097L34.4482 290.906C32.3504 290.888 30.2739 290.82 28.2185 290.701C28.2092 289.609 30.7094 229.533 30.6031 228.446C30.7482 228.405 30.8297 222.764 30.8872 222.517L0.155762 176.331L30.9202 218.146L31.012 219.382L32.837 172.706L6.42007 124.909L33.046 164.505C33.0559 163.87 34.3062 68.0344 34.3185 67.4431C34.3261 67.7572 34.8999 143.709 34.9042 144.029L60.1689 113.458L34.8799 150.599L34.7508 192.373L58.1961 151.977C28.9365 210.888 35.4118 190.273 34.6645 221.743L68.7204 165.494L34.6354 229.847L34.4803 281.5Z" fill="#D0CDE1"/>
<path d="M484.503 287.238L496.761 269.625L484.497 289.154L484.489 291.158C483.615 291.15 482.75 291.122 481.893 291.072C481.889 290.617 482.931 265.582 482.887 265.129C482.948 265.112 482.982 262.761 483.006 262.658L470.199 243.411L483.019 260.837L483.058 261.352L483.818 241.901L472.809 221.983L483.905 238.483C483.909 238.219 484.43 198.282 484.435 198.035C484.439 198.166 484.678 229.817 484.679 229.951L495.208 217.211L484.669 232.688L484.616 250.097L494.386 233.262C482.193 257.812 484.891 249.221 484.58 262.336L498.772 238.896L484.567 265.713L484.503 287.238Z" fill="#D0CDE1"/>
<path d="M248.57 300C385.852 300 497.141 295.64 497.141 290.261C497.141 284.883 385.852 280.522 248.57 280.522C111.289 280.522 0 284.883 0 290.261C0 295.64 111.289 300 248.57 300Z" fill="#D0CDE1"/>
<path d="M369.146 115.024H85.3301V284.233H369.146V115.024Z" fill="#3F3D56"/>
<path d="M155.57 115.024C155.28 132.83 148.003 149.808 135.309 162.298C122.616 174.788 105.522 181.789 87.7138 181.791C86.9161 181.791 86.1231 181.777 85.3301 181.749V115.024H155.57Z" fill="#E8EAEF"/>
<path d="M241.121 284.233H214.128C215.143 281.471 216.982 279.087 219.396 277.403C221.809 275.719 224.681 274.816 227.624 274.816C230.567 274.816 233.44 275.719 235.853 277.403C238.267 279.087 240.105 281.471 241.121 284.233Z" fill="#E8EAEF"/>
<path d="M369.146 196.709V253.704C361.829 253.347 354.929 250.188 349.877 244.883C344.825 239.578 342.007 232.533 342.007 225.207C342.007 217.881 344.825 210.836 349.877 205.531C354.929 200.226 361.829 197.067 369.146 196.709Z" fill="#E8EAEF"/>
<path d="M317.006 176.51H137.962C133.343 176.51 129.6 180.254 129.6 184.872V184.872C129.6 189.491 133.343 193.234 137.962 193.234H317.006C321.625 193.234 325.368 189.491 325.368 184.872C325.368 180.254 321.625 176.51 317.006 176.51Z" fill="white"/>
<path d="M317.006 209.467H137.962C133.343 209.467 129.6 213.21 129.6 217.828V217.829C129.6 222.447 133.343 226.19 137.962 226.19H317.006C321.625 226.19 325.368 222.447 325.368 217.828C325.368 213.21 321.625 209.467 317.006 209.467Z" fill="white"/>
<path d="M317.006 242.423H265.093C260.475 242.423 256.731 246.166 256.731 250.785C256.731 255.403 260.475 259.147 265.093 259.147H317.006C321.624 259.147 325.368 255.403 325.368 250.785C325.368 246.166 321.624 242.423 317.006 242.423Z" fill="white"/>
<path d="M414.153 51.9956C414.153 51.9956 421.958 55.0306 422.391 65.0028C422.825 74.975 420.223 102.724 420.223 102.724C420.223 102.724 429.762 116.598 422.391 120.5C415.021 124.403 414.153 104.892 414.153 104.892L405.482 63.7021C405.482 63.7021 410.685 51.562 414.153 51.9956Z" fill="#A0616A"/>
<path d="M334.376 84.0801C334.376 84.0801 315.732 96.2202 314.865 86.6815C313.998 77.1429 320.501 39.8555 320.501 39.8555C320.501 39.8555 321.368 23.8132 330.473 27.7154C339.578 31.6176 327.872 45.0584 327.872 45.0584L329.173 75.4086L337.844 74.975L334.376 84.0801Z" fill="#A0616A"/>
<path d="M364.292 95.353C364.292 95.353 307.061 74.1079 310.096 98.8216C313.131 123.535 327.872 154.753 327.872 154.753L333.075 162.991H343.914L336.977 118.332C336.977 118.332 361.691 132.207 369.062 130.039C369.062 130.039 378.6 193.774 382.069 198.544C385.538 203.313 391.608 260.979 391.608 260.979L397.244 267.916H408.083V170.361C408.083 170.361 426.727 109.661 412.419 106.626C398.111 103.591 364.292 95.353 364.292 95.353Z" fill="#2F2E41"/>
<path d="M331.774 157.354C331.774 157.354 329.173 152.585 324.837 157.354C320.501 162.124 310.096 167.76 310.096 167.76C310.096 167.76 287.55 172.963 305.76 177.299C323.97 181.634 326.138 177.299 326.138 177.299C326.138 177.299 329.173 178.166 331.774 179.033C334.376 179.9 351.285 176.865 351.285 174.264C351.285 171.662 345.545 156.115 343.212 158.469C340.879 160.823 331.774 157.354 331.774 157.354Z" fill="#2F2E41"/>
<path d="M398.075 263.624C398.075 263.624 391.682 258.359 390.178 259.864C388.674 261.368 380.777 271.521 380.777 271.521C380.777 271.521 359.718 287.691 378.896 290.324C398.075 292.956 396.947 285.811 396.947 285.811H402.964C403.716 285.811 413.869 281.298 413.493 279.418C413.117 277.538 408.604 262.206 407.1 263.291C405.596 264.376 398.075 263.624 398.075 263.624Z" fill="#2F2E41"/>
<path d="M340.012 35.5197C348.154 35.5197 354.754 28.9197 354.754 20.7782C354.754 12.6367 348.154 6.03665 340.012 6.03665C331.871 6.03665 325.271 12.6367 325.271 20.7782C325.271 28.9197 331.871 35.5197 340.012 35.5197Z" fill="#A0616A"/>
<path d="M350.418 19.0439C350.418 19.0439 361.691 28.5825 369.495 28.5825C377.3 28.5825 358.222 46.3591 358.222 46.3591L341.313 31.184L350.418 19.0439Z" fill="#A0616A"/>
<path d="M354.754 46.3591L354.416 42.9433C354.416 42.9433 362.992 27.7154 365.593 26.4147C368.195 25.1139 369.929 25.1139 369.929 25.1139C369.929 25.1139 378.6 16.0089 388.139 20.7782C397.678 25.5475 420.224 55.8977 420.224 55.8977C420.224 55.8977 404.181 57.1985 406.349 69.7721C406.349 69.7721 422.391 110.962 418.056 111.395C413.72 111.829 400.713 108.794 387.272 114.864C373.831 120.934 367.761 117.032 367.761 117.032L360.824 94.4859C360.824 94.4859 347.817 87.1151 348.25 80.6115L329.39 89.0662L331.124 73.0239L342.614 59.7999C342.614 59.7999 340.446 58.0656 354.754 46.3591Z" fill="#E8EAEF"/>
<path d="M326.452 22.3719C325.866 23.0231 325.132 23.5232 324.311 23.8298C323.472 24.0666 322.414 23.7762 322.079 22.9706L322.703 22.1593L320.834 20.9981L321.648 20.0427L320.143 18.4083L321.331 17.4658L319.069 15.8482C322.001 11.0648 325.171 6.22148 329.799 3.05053C334.427 -0.120427 340.894 -1.24718 345.635 1.75211C348.097 3.30931 349.838 5.78082 351.232 8.33817C354.036 13.4813 356.508 18.4946 356.873 24.3411C355.111 22.6259 352.54 21.6593 350.778 19.944C349.998 19.1163 349.115 18.393 348.149 17.7919C346.307 16.7529 344.102 16.661 342.04 16.1924C340.306 15.7983 339.18 15.0166 337.868 13.8991C336.308 12.5697 336.244 13.0837 334.668 14.5805C331.931 17.1795 329.192 19.7766 326.452 22.3719Z" fill="#2F2E41"/>
</g>
<defs>
<clipPath id="clip0">
<rect width="498.771" height="300" fill="white"/>
</clipPath>
</defs>
</svg>
