<svg width="560" height="384" viewBox="0 0 560 384" fill="none" xmlns="http://www.w3.org/2000/svg">
<path d="M551.393 0.0339356H7.80875C5.73828 0.0358207 3.75315 0.859188 2.28913 2.32326C0.825108 3.78733 0.0018187 5.77246 0 7.84293V376.191C0.00181634 378.261 0.825108 380.247 2.28913 381.711C3.75315 383.175 5.73828 383.998 7.80875 384H551.393C552.523 384 553.638 383.755 554.663 383.282C555.688 382.809 556.599 382.119 557.331 381.26C557.393 381.192 557.45 381.121 557.501 381.045C557.967 380.475 558.345 379.838 558.621 379.155C559.014 378.216 559.214 377.208 559.211 376.191V7.84298C559.209 5.77104 558.384 3.78474 556.919 2.3205C555.453 0.856251 553.465 0.033818 551.393 0.0339356V0.0339356ZM556.982 376.191C556.983 377.28 556.662 378.346 556.059 379.254C555.524 380.053 554.797 380.705 553.946 381.152C553.157 381.56 552.281 381.772 551.393 381.77H7.80875C6.32962 381.768 4.91158 381.18 3.86568 380.134C2.81977 379.088 2.2314 377.67 2.22961 376.191V7.84298C2.23139 6.36385 2.81977 4.94579 3.86568 3.89988C4.91158 2.85397 6.32961 2.26558 7.80875 2.26379H551.393C552.874 2.2636 554.294 2.85107 555.342 3.89715C556.39 4.94323 556.98 6.3624 556.982 7.84298V376.191Z" fill="#3F3D56"/>
<path d="M558.092 31.3319H1.11328V33.5643H558.092V31.3319Z" fill="#3F3D56"/>
<path d="M20.0878 23.474C23.7865 23.474 26.7849 20.4755 26.7849 16.7768C26.7849 13.0781 23.7865 10.0797 20.0878 10.0797C16.389 10.0797 13.3906 13.0781 13.3906 16.7768C13.3906 20.4755 16.389 23.474 20.0878 23.474Z" fill="#3F3D56"/>
<path d="M39.3426 23.474C43.0414 23.474 46.0398 20.4755 46.0398 16.7768C46.0398 13.0781 43.0414 10.0797 39.3426 10.0797C35.6439 10.0797 32.6455 13.0781 32.6455 16.7768C32.6455 20.4755 35.6439 23.474 39.3426 23.474Z" fill="#3F3D56"/>
<path d="M58.5966 23.474C62.2953 23.474 65.2937 20.4755 65.2937 16.7768C65.2937 13.0781 62.2953 10.0797 58.5966 10.0797C54.8978 10.0797 51.8994 13.0781 51.8994 16.7768C51.8994 20.4755 54.8978 23.474 58.5966 23.474Z" fill="#3F3D56"/>
<path d="M248.04 221.112C241.342 216.753 238.011 206.62 239.652 197.353C241.293 188.086 247.474 180.104 254.883 176.662C258.487 175.038 262.438 174.334 266.382 174.614C270.325 174.895 274.137 176.15 277.475 178.268C284.269 182.423 293.879 184.698 297.105 193.011C299.585 199.398 296.44 212.37 293.103 218.574C290.218 223.937 284.737 226.39 279.588 227.456C273.891 228.617 268.011 228.542 262.346 227.235C256.68 225.928 251.362 223.419 246.75 219.879L248.04 221.112Z" fill="#2F2E41"/>
<path d="M244.547 270.331L239.191 279.564L238.484 280.782L237.454 282.573H221.666L222.732 280.782L225.49 276.134L231.92 265.28L239.2 268.191L244.547 270.331Z" fill="#FFB8B8"/>
<path d="M220.484 282.573L217.6 280.782L217.242 280.558L235.341 247.575C236.119 246.148 237.173 244.889 238.441 243.871C239.709 242.854 241.167 242.098 242.729 241.647C244.701 241.06 246.79 240.983 248.801 241.423C249.973 241.671 251.103 242.093 252.15 242.677C252.581 242.913 252.997 243.176 253.395 243.465C254.925 244.538 256.183 245.955 257.066 247.602C258.118 249.531 258.638 251.704 258.571 253.9C258.505 256.095 257.856 258.233 256.69 260.095L249.714 271.244L243.75 280.782L242.63 282.573H220.484V282.573Z" fill="#2F2E41"/>
<path d="M266.983 232.818C279.131 232.818 288.978 222.971 288.978 210.823C288.978 198.676 279.131 188.828 266.983 188.828C254.836 188.828 244.988 198.676 244.988 210.823C244.988 222.971 254.836 232.818 266.983 232.818Z" fill="#FFB8B8"/>
<path d="M289.064 282.573H239.622L239.846 281.937C239.72 281.552 239.604 281.167 239.497 280.781C239.38 280.378 239.281 279.967 239.192 279.564C238.389 275.815 238.392 271.938 239.201 268.19C241.933 254.775 252.831 243.877 252.831 243.877C253.019 243.734 253.207 243.599 253.395 243.465C255.016 242.278 256.776 241.292 258.634 240.528C266.73 237.169 275.219 238.522 280.923 240.259C282.91 240.86 284.852 241.599 286.736 242.471C287.398 242.784 287.757 242.981 287.757 242.981L288.321 260.184L289.001 280.781L289.064 282.573Z" fill="#21295C"/>
<path d="M311.935 280.782L308.156 261.564L304.341 242.184C304.182 241.384 303.785 240.65 303.202 240.08C302.618 239.509 301.876 239.129 301.072 238.987L293.084 237.608L285.651 236.328C284.935 236.198 284.196 236.268 283.516 236.528C282.835 236.789 282.239 237.23 281.792 237.805C281.233 238.501 280.927 239.366 280.923 240.259C280.923 240.81 281.036 241.356 281.254 241.862C285.132 250.907 285.204 265.226 284.219 280.782C284.174 281.373 284.138 281.973 284.093 282.573H312.293L311.935 280.782Z" fill="#2F2E41"/>
<path d="M258.634 240.528C258.47 239.876 258.146 239.275 257.691 238.78C257.237 238.284 256.667 237.91 256.032 237.689C255.397 237.469 254.717 237.41 254.054 237.518C253.39 237.626 252.764 237.897 252.231 238.307L248.801 241.423L234.759 254.211C234.322 254.604 233.979 255.091 233.756 255.635C232.171 259.423 229.082 266.901 225.49 276.134C224.908 277.638 224.308 279.187 223.691 280.781C223.475 281.373 223.243 281.973 223.01 282.573H246.15C246.339 281.973 246.527 281.373 246.715 280.781C247.744 277.531 248.747 274.343 249.715 271.244C252.544 262.244 255.097 254.068 257.067 247.602C257.613 245.811 258.112 244.157 258.562 242.641C258.773 241.955 258.798 241.226 258.634 240.528V240.528Z" fill="#2F2E41"/>
<path d="M317.129 282.573H318.625L318.419 282.071L317.872 280.782L309.446 260.785L308.156 261.564L297.804 267.824L303.114 280.782L303.849 282.573H312.293H317.129Z" fill="#FFB8B8"/>
<path d="M308.586 244.925C307.445 241.94 305.195 239.512 302.306 238.149C299.417 236.785 296.113 236.591 293.084 237.608C292.697 237.737 292.317 237.886 291.947 238.056C289.825 239.002 288.017 240.534 286.735 242.471C286.211 243.244 285.782 244.077 285.454 244.952C284.873 246.47 284.598 248.088 284.646 249.712C284.694 251.337 285.063 252.936 285.732 254.417L288.32 260.185L297.58 280.782L298.385 282.573H317.129L318.418 282.071L321.768 280.782L322.234 280.603L308.586 244.925Z" fill="#2F2E41"/>
<path d="M284.259 185.562C285.025 185.792 285.846 185.762 286.595 185.478C287.343 185.194 287.977 184.672 288.398 183.991C288.797 183.297 289.031 182.522 289.084 181.723C289.136 180.925 289.005 180.125 288.701 179.385C288.077 177.908 287.093 176.611 285.839 175.611C284.416 174.323 282.682 173.425 280.809 173.006C279.873 172.805 278.904 172.807 277.969 173.013C277.034 173.218 276.154 173.622 275.388 174.198C274.637 174.792 274.08 175.598 273.788 176.511C273.497 177.424 273.485 178.403 273.753 179.323C274.323 180.974 275.865 182.081 277.406 182.905C280.462 184.537 283.833 185.495 287.291 185.715L284.259 185.562Z" fill="#2F2E41"/>
<path d="M288.537 210.166C285.001 210.654 285.455 208.854 284.039 205.577C282.623 202.301 280.727 198.411 277.173 198.079C274.26 197.807 271.86 200.136 269.501 201.865C265.295 204.947 259.627 206.455 254.752 204.606C249.877 202.757 246.489 196.947 248.339 192.072C248.915 190.726 249.761 189.513 250.825 188.507C251.889 187.501 253.148 186.725 254.524 186.225C257.285 185.244 260.217 184.836 263.141 185.028C269.644 185.236 276.022 186.869 281.825 189.811C285.83 191.846 289.729 194.757 291.249 198.985C292.768 203.213 293.768 209.153 289.423 210.297L288.537 210.166Z" fill="#2F2E41"/>
<path d="M282.45 173.934C280.702 170.892 282.145 166.717 285.005 164.684C287.865 162.651 291.701 162.452 295.114 163.267C298.489 164.117 301.581 165.84 304.081 168.262C306.58 170.685 308.398 173.722 309.353 177.068C310.801 182.389 309.94 188.103 311.167 193.479C311.821 196.345 313.054 199.047 314.791 201.418C316.529 203.789 318.733 205.779 321.268 207.266C323.804 208.753 326.617 209.706 329.534 210.065C332.452 210.423 335.412 210.181 338.232 209.353C341.905 208.274 345.638 205.652 346 201.84C346.38 206.217 345.382 210.603 343.145 214.385C340.909 218.166 337.546 221.154 333.527 222.929C328.794 224.903 323.515 225.032 318.388 224.9C315.047 224.815 311.63 224.614 308.548 223.321C306.416 222.348 304.499 220.96 302.91 219.237C301.321 217.514 300.092 215.492 299.294 213.288C297.725 208.858 297.301 204.103 298.063 199.465C298.567 195.858 299.57 192.322 299.851 188.69C300.132 185.058 299.599 181.181 297.36 178.307C295.121 175.434 290.845 173.967 287.661 175.737C286.382 176.449 285.35 177.611 283.96 178.071C282.57 178.53 280.6 177.723 280.727 176.264L282.45 173.934Z" fill="#2F2E41"/>
<path d="M432.545 282.573L432.715 280.781L437.766 228.232C439.422 226.936 441.2 225.805 443.077 224.856C453.474 219.617 463.504 222.124 468.93 224.292C470.368 224.855 471.758 225.535 473.085 226.324L476.041 280.781L476.139 282.573H432.545Z" fill="#21295C"/>
<path d="M456.198 214.246C468.346 214.246 478.193 204.399 478.193 192.251C478.193 180.104 468.346 170.256 456.198 170.256C444.051 170.256 434.203 180.104 434.203 192.251C434.203 204.399 444.051 214.246 456.198 214.246Z" fill="#FFB8B8"/>
<path d="M474.044 205.663C475.679 203.94 476.764 201.769 477.162 199.427C477.56 197.086 477.252 194.679 476.278 192.512C475.304 190.346 473.708 188.518 471.692 187.262C469.677 186.005 467.333 185.377 464.959 185.456C461.917 185.558 459.051 186.802 456.149 187.716C451.75 189.212 447.056 189.635 442.461 188.948C437.837 188.231 433.665 185.767 430.804 182.066C428.083 178.325 427.234 173.138 429.157 168.931C431.376 164.074 436.56 161.398 441.438 159.223C443.404 158.239 445.505 157.548 447.673 157.175C448.758 156.994 449.87 157.04 450.937 157.309C452.004 157.578 453.005 158.065 453.875 158.738C455.246 159.917 456.049 161.689 457.54 162.711C459.219 163.86 461.4 163.83 463.425 164.033C467.986 164.49 472.299 166.324 475.792 169.292C479.285 172.26 481.791 176.221 482.978 180.648C484.165 185.075 483.976 189.759 482.436 194.076C480.896 198.393 478.078 202.139 474.357 204.815L474.044 205.663Z" fill="#2F2E41"/>
<path d="M446.353 233.955L443.076 224.856L442.871 224.289C442.775 224.02 442.618 223.777 442.413 223.577C442.208 223.378 441.96 223.228 441.689 223.139C441.417 223.049 441.129 223.023 440.846 223.061C440.562 223.1 440.292 223.202 440.054 223.36L436.333 225.841C436.333 225.841 412.467 225.841 410.55 240.161C410.524 240.384 410.488 240.635 410.461 240.904C410.46 240.916 410.457 240.928 410.452 240.94C410.21 241.88 405.706 259.289 401.837 280.782C401.73 281.373 401.622 281.973 401.515 282.573H453.375V282.572C455.062 260.982 454.118 240.908 446.353 233.955Z" fill="#2F2E41"/>
<path d="M508.216 280.782C505.387 258.734 501.339 240.904 501.339 240.904C501.303 240.635 501.267 240.384 501.24 240.16C499.333 225.841 475.467 225.841 475.467 225.841L471.748 223.362C471.51 223.203 471.239 223.101 470.956 223.062C470.672 223.024 470.384 223.05 470.112 223.14C469.841 223.23 469.593 223.38 469.388 223.58C469.183 223.779 469.026 224.023 468.929 224.292L465.446 233.954C457.682 240.908 456.738 260.982 458.425 282.572L458.425 282.573H508.44C508.369 281.973 508.288 281.373 508.216 280.782Z" fill="#2F2E41"/>
<path d="M88.1425 230.578L82.8231 280.782L82.635 282.573H68.2441C68.4142 281.991 68.5843 281.391 68.7636 280.782C72.8473 266.776 78.4084 246.331 77.8081 240.913C76.868 232.459 83.4502 229.638 83.4502 229.638L83.8621 229.719L88.1425 230.578Z" fill="#21295C"/>
<path d="M111.352 215.083C123.5 215.083 133.348 205.235 133.348 193.087C133.348 180.94 123.5 171.092 111.352 171.092C99.2049 171.092 89.3574 180.94 89.3574 193.087C89.3574 205.235 99.2049 215.083 111.352 215.083Z" fill="#A0616A"/>
<path d="M139.823 271.916C138.714 273.961 137.806 276.108 137.11 278.328C136.85 279.116 136.6 279.94 136.367 280.782C136.197 281.364 136.045 281.964 135.892 282.573H77.8799C77.9608 281.982 78.0321 281.382 78.1129 280.782C81.0772 257.364 83.4769 233.596 83.8622 229.719C83.898 229.351 83.9159 229.163 83.9159 229.163C118.68 210.841 144.05 234.805 144.05 234.805C144.05 234.805 144.086 234.975 144.14 235.307C144.695 238.656 147.525 258.214 139.823 271.916Z" fill="#21295C"/>
<path d="M137.111 278.328L133.242 270.035L134.182 237.151L144.141 235.307L144.49 235.244C149.637 238.236 153.62 242.882 155.791 248.426C157.726 253.262 161.406 267.805 164.514 280.782C164.657 281.382 164.8 281.982 164.944 282.573H139.09L138.257 280.782L137.111 278.328Z" fill="#21295C"/>
<path d="M172.493 134.811H45.3103C42.5823 134.814 39.967 135.899 38.038 137.828C36.109 139.757 35.0238 142.372 35.0205 145.1V272.283C35.0238 275.011 36.109 277.626 38.038 279.555C39.967 281.484 42.5823 282.569 45.3103 282.573H172.493C175.221 282.571 177.838 281.486 179.767 279.557C181.696 277.628 182.781 275.011 182.782 272.283V145.1C182.781 142.372 181.696 139.756 179.767 137.826C177.838 135.897 175.221 134.812 172.493 134.811ZM180.991 272.283C180.989 274.536 180.094 276.697 178.5 278.29C176.907 279.884 174.746 280.78 172.493 280.781H45.3103C43.0574 280.778 40.8977 279.882 39.3046 278.289C37.7115 276.696 36.815 274.536 36.8116 272.283V145.1C36.815 142.847 37.7115 140.688 39.3046 139.095C40.8977 137.502 43.0574 136.605 45.3103 136.602H172.493C174.746 136.604 176.907 137.5 178.5 139.093C180.094 140.686 180.989 142.847 180.991 145.1V272.283ZM82.8236 280.781L82.6355 282.573H135.893C136.045 281.964 136.197 281.364 136.367 280.781H82.8236Z" fill="#3F3D56"/>
<path d="M343.189 134.811H216.007C213.279 134.814 210.663 135.899 208.734 137.828C206.805 139.757 205.72 142.372 205.717 145.1V272.283C205.72 275.011 206.805 277.626 208.734 279.555C210.663 281.484 213.279 282.569 216.007 282.573H343.189C345.918 282.571 348.534 281.486 350.463 279.557C352.392 277.628 353.477 275.011 353.479 272.283V145.1C353.477 142.372 352.392 139.756 350.463 137.826C348.534 135.897 345.918 134.812 343.189 134.811V134.811ZM351.688 272.283C351.686 274.536 350.79 276.697 349.196 278.29C347.603 279.884 345.443 280.78 343.189 280.781H216.007C213.754 280.778 211.594 279.882 210.001 278.289C208.408 276.696 207.511 274.536 207.508 272.283V145.1C207.511 142.847 208.408 140.688 210.001 139.095C211.594 137.502 213.754 136.605 216.007 136.602H343.189C345.443 136.604 347.603 137.5 349.196 139.093C350.79 140.686 351.686 142.847 351.688 145.1V272.283ZM239.496 280.781C239.604 281.167 239.72 281.552 239.846 281.937L239.622 282.573H284.093C284.138 281.973 284.174 281.373 284.219 280.781H239.496Z" fill="#3F3D56"/>
<path d="M513.894 134.811H386.712C383.983 134.812 381.367 135.897 379.438 137.826C377.508 139.756 376.424 142.372 376.422 145.1V272.283C376.424 275.011 377.508 277.628 379.438 279.557C381.367 281.486 383.983 282.571 386.712 282.573H513.894C516.622 282.569 519.238 281.484 521.166 279.555C523.095 277.626 524.18 275.011 524.184 272.283V145.1C524.18 142.372 523.095 139.757 521.166 137.828C519.238 135.899 516.622 134.814 513.894 134.811ZM522.393 272.283C522.389 274.536 521.493 276.696 519.9 278.289C518.307 279.882 516.147 280.778 513.894 280.781H386.712C384.458 280.78 382.298 279.884 380.704 278.29C379.111 276.697 378.215 274.536 378.213 272.283V145.1C378.215 142.847 379.111 140.686 380.704 139.093C382.298 137.5 384.458 136.604 386.712 136.602H513.894C516.147 136.605 518.307 137.502 519.9 139.095C521.493 140.688 522.389 142.847 522.393 145.1V272.283ZM453.509 280.781C453.464 281.373 453.419 281.973 453.375 282.573H491.963C492.034 281.981 492.115 281.381 492.187 280.781H453.509Z" fill="#3F3D56"/>
<path d="M427.364 334.513H131.84C129.94 334.513 128.118 333.758 126.774 332.415C125.431 331.071 124.676 329.249 124.676 327.349C124.676 325.449 125.431 323.627 126.774 322.283C128.118 320.939 129.94 320.185 131.84 320.185H427.364C429.264 320.185 431.086 320.939 432.43 322.283C433.773 323.627 434.528 325.449 434.528 327.349C434.528 329.249 433.773 331.071 432.43 332.415C431.086 333.758 429.264 334.513 427.364 334.513Z" fill="#CCCCCC"/>
<path d="M344.528 97.1986H214.677C212.777 97.1986 210.955 96.4438 209.611 95.1003C208.267 93.7567 207.513 91.9345 207.513 90.0344C207.513 88.1343 208.267 86.3121 209.611 84.9685C210.955 83.625 212.777 82.8702 214.677 82.8702H344.528C346.428 82.8702 348.251 83.625 349.594 84.9685C350.938 86.3121 351.692 88.1343 351.692 90.0344C351.692 91.9345 350.938 93.7567 349.594 95.1003C348.251 96.4438 346.428 97.1986 344.528 97.1986Z" fill="#21295C"/>
<path d="M121.873 212.25C122.618 212.985 123.603 213.426 124.646 213.493C125.69 213.56 126.723 213.248 127.556 212.615C132.74 208.772 137.291 203.989 139.984 198.155C143.07 191.47 143.414 183.266 139.693 176.913C136.548 171.541 130.994 168.075 125.458 165.23C123.309 164.016 120.994 163.124 118.586 162.581C116.153 162.044 113.606 162.455 111.465 163.73C110.418 164.387 109.593 165.344 109.097 166.477C108.602 167.609 108.46 168.865 108.689 170.08C106.03 167.046 102.624 164.76 98.8092 163.448C96.4071 162.508 93.7767 162.318 91.2641 162.901C87.7514 163.897 85.1869 167.018 83.7842 170.39C82.6499 172.954 82.2581 175.785 82.6536 178.561C82.8618 179.943 83.3576 181.265 84.1089 182.443C84.8603 183.62 85.8504 184.627 87.0154 185.398C89.9197 187.195 93.6249 187.066 96.9603 186.331C100.296 185.597 103.524 184.32 106.924 183.998C110.324 183.675 114.11 184.522 116.18 187.239C117.637 189.153 118.011 191.653 118.338 194.036L120.039 206.429C120.178 208.222 120.636 209.975 121.391 211.607C121.522 211.842 121.684 212.059 121.873 212.25Z" fill="#2F2E41"/>
</svg>
