<svg width="100" height="100" viewBox="0 0 100 100" fill="none" xmlns="http://www.w3.org/2000/svg">
<path d="M40.2976 62.5H17.869C16.8373 62.5 16 61.5667 16 60.4167C16 59.2667 16.8373 58.3333 17.869 58.3333H40.2976C41.3293 58.3333 42.1667 59.2667 42.1667 60.4167C42.1667 61.5667 41.3293 62.5 40.2976 62.5Z" fill="#1B3B6F"/>
<path d="M35.7083 75H17.7917C16.8027 75 16 74.0666 16 72.9166C16 71.7666 16.8027 70.8333 17.7917 70.8333H35.7083C36.6973 70.8333 37.5 71.7666 37.5 72.9166C37.5 74.0666 36.6973 75 35.7083 75Z" fill="#1B3B6F"/>
<path d="M39.5833 87.5H10.4167C4.675 87.5 0 82.825 0 77.0833V10.4167C0 4.675 4.675 0 10.4167 0H60.4167C66.1583 0 70.8333 4.675 70.8333 10.4167V35.6667C70.8333 36.8167 69.9 37.75 68.75 37.75C67.6 37.75 66.6667 36.8167 66.6667 35.6667V10.4167C66.6667 6.97083 63.8625 4.16667 60.4167 4.16667H10.4167C6.97083 4.16667 4.16667 6.97083 4.16667 10.4167V77.0833C4.16667 80.5292 6.97083 83.3333 10.4167 83.3333H39.5833C40.7333 83.3333 41.6667 84.2667 41.6667 85.4167C41.6667 86.5667 40.7333 87.5 39.5833 87.5Z" fill="#1B3B6F"/>
<path d="M72.9173 100C57.984 100 45.834 87.85 45.834 72.9167C45.834 57.9833 57.984 45.8333 72.9173 45.8333C87.8507 45.8333 100.001 57.9833 100.001 72.9167C100.001 87.85 87.8507 100 72.9173 100ZM72.9173 50C60.2798 50 50.0007 60.2792 50.0007 72.9167C50.0007 85.5542 60.2798 95.8333 72.9173 95.8333C85.5548 95.8333 95.834 85.5542 95.834 72.9167C95.834 60.2792 85.5548 50 72.9173 50Z" fill="#1B3B6F"/>
<path d="M68.7497 83.3333C68.1997 83.3333 67.6664 83.1125 67.2747 82.725L58.9414 74.3917C58.1289 73.5792 58.1289 72.2583 58.9414 71.4458C59.7539 70.6333 61.0747 70.6333 61.8872 71.4458L68.6456 78.2042L81.7623 63.2125C82.5206 62.3417 83.8373 62.2542 84.7039 63.0167C85.5706 63.775 85.6581 65.0917 84.8998 65.9583L70.3164 82.625C69.9372 83.0583 69.3914 83.3167 68.8164 83.3333C68.7956 83.3333 68.7706 83.3333 68.7497 83.3333V83.3333Z" fill="#1B3B6F"/>
<path d="M48.8846 43.3077H21.1154C18.2946 43.3077 16 41.0131 16 38.1923V22.1154C16 19.2946 18.2946 17 21.1154 17H48.8846C51.7054 17 54 19.2946 54 22.1154V38.1923C54 41.0131 51.7054 43.3077 48.8846 43.3077ZM21.1154 21.3846C20.712 21.3846 20.3846 21.712 20.3846 22.1154V38.1923C20.3846 38.5957 20.712 38.9231 21.1154 38.9231H48.8846C49.288 38.9231 49.6154 38.5957 49.6154 38.1923V22.1154C49.6154 21.712 49.288 21.3846 48.8846 21.3846H21.1154Z" fill="#1B3B6F"/>
<path d="M35.0003 31.6154C34.594 31.6154 34.1877 31.5014 33.8311 31.2763L18.368 21.5132C17.3449 20.8672 17.038 19.5139 17.684 18.4908C18.3329 17.4677 19.6834 17.1579 20.7094 17.8097L35.0032 26.8332L49.2971 17.8097C50.3202 17.1579 51.6736 17.4706 52.3225 18.4908C52.9685 19.5168 52.6616 20.8672 51.6385 21.5132L36.1754 31.2763C35.8129 31.5014 35.4066 31.6154 35.0003 31.6154Z" fill="#1B3B6F"/>
</svg>
